<?xml version="1.0" standalone="no"?>
<!DOCTYPE svg PUBLIC "-//W3C//DTD SVG 20010904//EN"
 "http://www.w3.org/TR/2001/REC-SVG-20010904/DTD/svg10.dtd">
<svg version="1.0" xmlns="http://www.w3.org/2000/svg"
 width="800.000000pt" height="800.000000pt" viewBox="0 0 800.000000 800.000000"
 preserveAspectRatio="xMidYMid meet">

<g transform="translate(0.000000,800.000000) scale(0.100000,-0.100000)"
fill="#000000" stroke="none">
<path d="M1267 7303 c-2 -5 -4 -1106 -3 -2448 l1 -2440 1893 -3 c1040 -1 1892
1 1892 5 0 5 -31 28 -68 53 -37 24 -121 87 -187 140 -360 285 -682 590 -1095
1035 -584 629 -1095 1410 -1413 2160 -86 203 -235 615 -261 723 -8 31 -32 127
-55 212 -38 145 -106 468 -113 535 l-3 30 -292 3 c-160 1 -294 -1 -296 -5z"/>
<path d="M2156 7302 c-3 -5 3 -42 13 -83 10 -41 33 -137 51 -214 101 -442 299
-1020 495 -1445 212 -463 535 -990 835 -1365 202 -251 340 -404 572 -631 611
-596 1227 -1085 1888 -1499 235 -147 547 -315 673 -361 l57 -21 0 162 0 163
-102 57 c-107 60 -526 329 -613 394 -27 21 -113 82 -190 136 -194 137 -609
448 -795 595 -960 765 -1469 1371 -1920 2285 -228 463 -443 1021 -555 1445
-30 112 -55 213 -55 224 0 17 5 18 53 12 87 -11 533 -103 682 -141 275 -70
802 -254 1049 -367 549 -250 853 -445 1162 -741 221 -212 375 -422 509 -695
140 -285 220 -542 275 -887 6 -38 15 -92 20 -120 10 -54 31 -252 52 -485 8
-94 12 -348 13 -727 l0 -583 208 0 207 0 -2 2448 -3 2447 -2287 3 c-1258 1
-2289 -2 -2292 -6z"/>
<path d="M4870 5619 c-151 -39 -336 -146 -441 -256 -107 -112 -198 -276 -241
-433 -19 -73 -23 -109 -23 -255 0 -195 17 -277 85 -423 116 -248 305 -417 565
-507 70 -24 99 -28 236 -33 123 -3 172 -1 230 12 137 31 222 69 339 152 254
179 402 482 399 814 l-1 95 -18 -88 c-27 -127 -79 -227 -165 -312 -236 -236
-601 -234 -835 4 -116 117 -170 249 -170 411 0 162 54 294 170 411 118 120
255 179 420 179 153 0 300 -61 413 -172 38 -37 62 -57 54 -45 -7 12 -22 36
-32 52 -26 42 -112 142 -164 190 -93 86 -252 169 -390 204 -114 28 -321 28
-431 0z"/>
<path d="M1230 1335 l0 -135 35 0 35 0 0 110 0 110 50 0 c47 0 50 2 50 25 0
25 -1 25 -85 25 l-85 0 0 -135z"/>
<path d="M1430 1335 l0 -135 85 0 c84 0 85 0 85 25 0 23 -3 25 -50 25 -49 0
-50 1 -50 30 0 29 2 30 45 30 41 0 45 2 45 25 0 23 -4 25 -45 25 -43 0 -45 1
-45 30 0 29 2 30 45 30 41 0 45 2 45 25 0 25 -1 25 -80 25 l-80 0 0 -135z"/>
<path d="M1694 1456 c-17 -8 -39 -24 -48 -37 -22 -32 -20 -97 4 -136 20 -33
20 -33 0 -33 -15 0 -20 -7 -20 -25 0 -24 3 -25 55 -25 52 0 55 1 55 25 0 14
-9 38 -21 54 -29 39 -23 97 12 124 23 16 30 17 50 7 13 -7 27 -18 31 -24 15
-22 8 -83 -12 -109 -11 -14 -20 -37 -20 -51 0 -25 2 -26 55 -26 52 0 55 1 55
25 0 20 -5 25 -25 25 l-24 0 24 25 c30 29 35 107 9 144 -33 46 -118 64 -180
37z"/>
<path d="M1930 1336 l0 -136 35 0 c35 0 35 0 35 45 l0 45 40 0 c58 0 90 34 90
93 0 65 -23 81 -121 86 l-79 3 0 -136z m111 74 c23 -13 25 -55 3 -64 -35 -13
-44 -7 -44 34 0 41 8 47 41 30z"/>
<path d="M2170 1335 l0 -135 35 0 35 0 0 110 0 110 50 0 c47 0 50 2 50 25 0
25 -1 25 -85 25 l-85 0 0 -135z"/>
<path d="M2380 1335 l0 -135 35 0 35 0 0 135 0 135 -35 0 -35 0 0 -135z"/>
<path d="M2583 1463 c-12 -2 -36 -20 -53 -39 -26 -31 -30 -42 -30 -95 0 -56 3
-64 34 -95 30 -30 40 -34 85 -34 94 0 141 45 141 135 0 102 -66 150 -177 128z
m81 -64 c51 -40 26 -149 -34 -149 -60 0 -85 109 -34 149 15 12 30 21 34 21 4
0 19 -9 34 -21z"/>
<path d="M2780 1452 c0 -9 18 -39 40 -66 22 -26 40 -50 40 -53 0 -2 -18 -26
-40 -52 -63 -75 -59 -81 65 -81 l105 0 0 25 c0 24 -3 25 -56 25 l-56 0 16 23
c52 72 51 63 17 104 l-32 38 51 3 c46 3 50 5 50 28 0 24 -1 24 -100 24 -89 0
-100 -2 -100 -18z"/>
<path d="M3140 1335 l0 -135 35 0 35 0 0 110 0 110 50 0 50 0 0 -110 0 -110
35 0 35 0 0 135 0 135 -120 0 -120 0 0 -135z"/>
<path d="M3495 1453 c-22 -55 -85 -236 -85 -244 0 -5 15 -9 33 -9 27 0 35 5
44 31 11 28 15 30 54 27 37 -3 44 -7 49 -28 5 -20 13 -26 44 -28 44 -4 46 -20
-16 156 l-40 112 -38 0 c-27 0 -40 -5 -45 -17z m60 -110 c6 -31 5 -33 -20 -33
-21 0 -26 4 -21 16 3 9 9 27 12 41 8 30 19 20 29 -24z"/>
<path d="M3710 1335 l0 -135 35 0 35 0 0 110 0 110 50 0 50 0 0 -110 0 -110
35 0 35 0 0 135 0 135 -120 0 -120 0 0 -135z"/>
<path d="M4075 1453 c-22 -55 -85 -236 -85 -244 0 -5 15 -9 33 -9 27 0 35 5
44 31 11 28 15 30 54 27 37 -3 44 -7 49 -28 6 -24 10 -25 86 -28 l81 -3 18 41
c10 22 21 40 25 40 4 0 15 -18 25 -40 17 -37 21 -40 57 -40 21 0 38 2 38 4 0
3 -16 31 -35 63 -19 32 -35 62 -35 67 0 4 16 34 35 66 19 32 35 60 35 64 0 3
-16 6 -35 6 -30 0 -37 -5 -55 -40 -11 -22 -24 -40 -28 -40 -4 0 -15 18 -24 40
-15 38 -19 40 -58 40 l-42 0 38 -67 37 -67 -22 -40 c-12 -23 -30 -52 -41 -66
l-19 -25 -9 25 c-5 14 -26 73 -46 133 l-38 107 -38 0 c-27 0 -40 -5 -45 -17z
m60 -110 c6 -31 5 -33 -20 -33 -21 0 -26 4 -21 16 3 9 9 27 12 41 8 30 19 20
29 -24z"/>
<path d="M4530 1336 l0 -136 35 0 c35 0 35 0 35 45 l0 45 40 0 c58 0 90 34 90
93 0 65 -23 81 -121 86 l-79 3 0 -136z m111 74 c23 -13 25 -55 3 -64 -35 -13
-44 -7 -44 34 0 41 8 47 41 30z"/>
<path d="M4780 1335 l0 -135 35 0 35 0 0 55 0 55 50 0 50 0 0 -55 0 -55 35 0
35 0 0 135 0 135 -35 0 -35 0 0 -55 0 -55 -50 0 -50 0 0 55 0 55 -35 0 -35 0
0 -135z"/>
<path d="M5050 1452 c0 -9 18 -39 40 -66 22 -26 40 -50 40 -53 0 -2 -18 -26
-40 -52 -63 -75 -59 -81 65 -81 l105 0 0 25 c0 24 -3 25 -56 25 l-56 0 16 23
c52 72 51 63 17 104 l-32 38 51 3 c46 3 50 5 50 28 0 24 -1 24 -100 24 -89 0
-100 -2 -100 -18z"/>
<path d="M5280 1445 c0 -22 4 -25 35 -25 l35 0 0 -110 0 -110 35 0 35 0 0 110
0 110 40 0 c36 0 40 3 40 25 l0 25 -110 0 -110 0 0 -25z"/>
<path d="M5603 1463 c-12 -2 -36 -20 -53 -39 -26 -31 -30 -42 -30 -95 0 -56 3
-64 34 -95 30 -30 40 -34 85 -34 94 0 141 45 141 135 0 102 -66 150 -177 128z
m81 -64 c51 -40 26 -149 -34 -149 -60 0 -85 109 -34 149 15 12 30 21 34 21 4
0 19 -9 34 -21z"/>
<path d="M5800 1452 c0 -9 18 -39 40 -66 22 -26 40 -50 40 -53 0 -2 -18 -26
-40 -52 -63 -75 -59 -81 65 -81 l105 0 0 25 c0 24 -3 25 -56 25 l-56 0 16 23
c52 72 51 63 17 104 l-32 38 51 3 c46 3 50 5 50 28 0 24 -1 24 -100 24 -89 0
-100 -2 -100 -18z"/>
<path d="M6225 1453 c-22 -55 -85 -236 -85 -244 0 -5 15 -9 33 -9 27 0 35 5
44 31 11 28 15 30 54 27 37 -3 44 -7 49 -28 5 -20 13 -26 44 -28 44 -4 46 -20
-16 156 l-40 112 -38 0 c-27 0 -40 -5 -45 -17z m60 -110 c6 -31 5 -33 -20 -33
-21 0 -26 4 -21 16 3 9 9 27 12 41 8 30 19 20 29 -24z"/>
<path d="M6540 1335 l0 -135 85 0 c84 0 85 0 85 25 0 23 -3 25 -50 25 -49 0
-50 1 -50 30 0 29 2 30 45 30 41 0 45 2 45 25 0 23 -4 25 -45 25 -43 0 -45 1
-45 30 0 29 2 30 45 30 41 0 45 2 45 25 0 25 -1 25 -80 25 l-80 0 0 -135z"/>
<path d="M6432 1251 c-26 -16 -9 -46 26 -49 31 -3 33 -2 30 25 -3 30 -30 41
-56 24z"/>
<path d="M6752 1251 c-26 -16 -9 -46 26 -49 31 -3 33 -2 30 25 -3 30 -30 41
-56 24z"/>
<path d="M1337 843 c-26 -70 -47 -131 -47 -136 0 -4 9 -7 19 -7 13 0 23 11 31
35 l12 36 56 -3 c54 -3 57 -4 66 -35 7 -25 14 -33 32 -33 l23 0 -35 98 c-20
53 -42 113 -49 132 -9 26 -19 36 -37 38 -23 3 -27 -5 -71 -125z m98 7 l14 -40
-39 0 c-22 0 -40 4 -40 8 0 5 7 30 16 57 18 52 23 50 49 -25z"/>
<path d="M1560 954 c0 -8 16 -36 35 -61 19 -25 35 -50 35 -56 0 -5 -18 -32
-40 -59 -59 -75 -57 -78 55 -78 88 0 95 1 95 20 0 18 -7 20 -66 20 l-66 0 29
38 c47 60 48 60 13 108 l-31 44 50 0 c44 0 51 3 51 20 0 18 -7 20 -80 20 -66
0 -80 -3 -80 -16z"/>
<path d="M1870 956 c0 -8 -15 -17 -35 -20 -100 -19 -100 -173 0 -192 25 -4 35
-11 35 -25 0 -12 7 -19 20 -19 13 0 20 7 20 18 0 13 12 22 40 31 98 29 91 167
-10 187 -16 4 -30 13 -30 20 0 8 -9 14 -20 14 -11 0 -20 -6 -20 -14z m0 -116
c0 -65 -14 -77 -52 -43 -35 31 -12 103 34 103 15 0 18 -8 18 -60z m100 28 c13
-25 13 -31 0 -55 -9 -16 -26 -29 -38 -31 -21 -3 -22 0 -22 58 0 58 1 61 22 58
12 -2 29 -15 38 -30z"/>
<path d="M2087 843 c-26 -70 -47 -131 -47 -136 0 -4 9 -7 19 -7 13 0 23 11 31
35 l12 36 56 -3 c54 -3 57 -4 66 -35 7 -25 14 -33 32 -33 l23 0 -35 98 c-20
53 -42 113 -49 132 -9 26 -19 36 -37 38 -23 3 -27 -5 -71 -125z m98 7 l14 -40
-39 0 c-22 0 -40 4 -40 8 0 5 7 30 16 57 18 52 23 50 49 -25z"/>
<path d="M2372 943 c-24 -60 -82 -226 -82 -234 0 -5 9 -9 19 -9 16 0 26 21 56
111 20 60 39 108 41 106 2 -2 19 -51 37 -108 27 -88 36 -105 55 -107 12 -2 22
0 22 5 0 4 -20 64 -44 133 -39 111 -46 125 -68 128 -20 2 -28 -3 -36 -25z"/>
<path d="M2560 835 l0 -135 25 0 25 0 0 135 0 135 -25 0 -25 0 0 -135z"/>
<path d="M2660 954 c0 -8 16 -36 35 -61 19 -25 35 -50 35 -56 0 -5 -18 -32
-40 -59 -59 -75 -57 -78 55 -78 88 0 95 1 95 20 0 18 -7 20 -66 20 l-66 0 29
38 c47 60 48 60 13 108 l-31 44 50 0 c44 0 51 3 51 20 0 18 -7 20 -80 20 -66
0 -80 -3 -80 -16z"/>
<path d="M2850 950 c0 -16 7 -20 35 -20 l35 0 0 -115 0 -115 25 0 25 0 0 115
0 115 35 0 c28 0 35 4 35 20 0 19 -7 20 -95 20 -88 0 -95 -1 -95 -20z"/>
<path d="M3080 835 l0 -135 25 0 25 0 0 135 0 135 -25 0 -25 0 0 -135z"/>
<path d="M3190 835 l0 -135 25 0 c23 0 24 4 27 62 l3 63 45 -62 c37 -51 50
-62 74 -63 21 0 26 3 19 13 -5 6 -31 38 -56 71 l-47 58 38 47 c70 86 67 81 40
81 -19 0 -35 -15 -69 -61 l-44 -61 -3 61 c-3 57 -4 61 -27 61 l-25 0 0 -135z"/>
<path d="M3420 835 l0 -135 25 0 c24 0 25 3 25 60 l0 60 60 0 60 0 0 -60 c0
-57 1 -60 25 -60 l25 0 0 135 0 135 -25 0 c-24 0 -25 -3 -25 -55 l0 -55 -60 0
-60 0 0 55 c0 52 -1 55 -25 55 l-25 0 0 -135z"/>
<path d="M3680 954 c0 -8 16 -36 35 -61 19 -25 35 -50 35 -56 0 -5 -18 -32
-40 -59 -59 -75 -57 -78 55 -78 88 0 95 1 95 20 0 18 -7 20 -66 20 l-66 0 29
38 c47 60 48 60 13 108 l-31 44 50 0 c44 0 51 3 51 20 0 18 -7 20 -80 20 -66
0 -80 -3 -80 -16z"/>
<path d="M4000 835 l0 -135 25 0 25 0 0 115 0 115 60 0 60 0 0 -115 0 -115 25
0 25 0 0 135 0 135 -110 0 -110 0 0 -135z"/>
<path d="M4270 835 l0 -135 25 0 c23 0 25 4 25 44 l0 43 42 6 c72 10 105 68
77 131 -14 30 -55 46 -120 46 l-49 0 0 -135z m126 70 c15 -23 15 -27 0 -50
-11 -17 -26 -25 -46 -25 -29 0 -30 1 -30 50 0 49 1 50 30 50 20 0 35 -8 46
-25z"/>
<path d="M4517 843 c-26 -70 -47 -131 -47 -136 0 -4 9 -7 19 -7 13 0 23 11 31
35 l12 36 56 -3 c54 -3 57 -4 66 -35 7 -25 14 -33 32 -33 l23 0 -35 98 c-20
53 -42 113 -49 132 -9 26 -19 36 -37 38 -23 3 -27 -5 -71 -125z m98 7 l14 -40
-39 0 c-22 0 -40 4 -40 8 0 5 7 30 16 57 18 52 23 50 49 -25z"/>
<path d="M4750 835 l0 -135 25 0 c23 0 24 4 27 62 l3 63 45 -62 c37 -51 50
-62 74 -63 21 0 26 3 19 13 -5 6 -31 38 -56 71 l-47 58 38 47 c70 86 67 81 40
81 -19 0 -35 -15 -69 -61 l-44 -61 -3 61 c-3 57 -4 61 -27 61 l-25 0 0 -135z"/>
<path d="M4950 950 c0 -16 7 -20 35 -20 l35 0 0 -115 0 -115 25 0 25 0 0 115
0 115 35 0 c28 0 35 4 35 20 0 19 -7 20 -95 20 -88 0 -95 -1 -95 -20z"/>
<path d="M5253 963 c-12 -2 -36 -20 -53 -39 -25 -29 -30 -43 -30 -87 0 -70 26
-112 80 -128 57 -17 115 3 148 51 34 51 28 129 -15 171 -30 31 -81 43 -130 32z
m95 -53 c40 -38 37 -124 -6 -156 -18 -14 -60 -18 -87 -8 -37 15 -57 94 -33
137 26 50 87 63 126 27z"/>
<path d="M5470 835 l0 -135 25 0 c23 0 25 4 25 44 l0 43 42 6 c72 10 105 68
77 131 -14 30 -55 46 -120 46 l-49 0 0 -135z m126 70 c15 -23 15 -27 0 -50
-11 -17 -26 -25 -46 -25 -29 0 -30 1 -30 50 0 49 1 50 30 50 20 0 35 -8 46
-25z"/>
<path d="M5680 835 l0 -135 75 0 c68 0 75 2 75 20 0 17 -7 20 -50 20 l-50 0 0
40 0 40 45 0 c38 0 45 3 45 20 0 17 -7 20 -45 20 -45 0 -45 0 -45 35 0 35 0
35 45 35 38 0 45 3 45 20 0 18 -7 20 -70 20 l-70 0 0 -135z"/>
<path d="M5860 965 c0 -3 18 -41 40 -85 31 -61 40 -91 40 -130 0 -43 3 -50 20
-50 17 0 20 7 20 50 0 39 9 69 40 130 22 44 40 82 40 85 0 3 -8 5 -18 5 -13 0
-28 -19 -47 -60 -16 -33 -32 -60 -35 -60 -4 0 -18 27 -33 60 -19 46 -30 60
-46 60 -12 0 -21 -2 -21 -5z"/>
<path d="M6080 954 c0 -8 16 -36 35 -61 19 -25 35 -50 35 -56 0 -5 -18 -32
-40 -59 -59 -75 -57 -78 55 -78 88 0 95 1 95 20 0 18 -7 20 -66 20 l-66 0 29
38 c47 60 48 60 13 108 l-31 44 50 0 c44 0 51 3 51 20 0 18 -7 20 -80 20 -66
0 -80 -3 -80 -16z"/>
<path d="M6300 835 l0 -135 25 0 c24 0 25 3 25 60 l0 60 60 0 60 0 0 -60 c0
-57 1 -60 25 -60 l25 0 0 135 0 135 -25 0 c-24 0 -25 -3 -25 -55 l0 -55 -60 0
-60 0 0 55 c0 52 -1 55 -25 55 l-25 0 0 -135z"/>
<path d="M6560 954 c0 -8 16 -36 35 -61 19 -25 35 -50 35 -56 0 -5 -18 -32
-40 -59 -59 -75 -57 -78 55 -78 88 0 95 1 95 20 0 18 -7 20 -66 20 l-66 0 29
38 c47 60 48 60 13 108 l-31 44 50 0 c44 0 51 3 51 20 0 18 -7 20 -80 20 -66
0 -80 -3 -80 -16z"/>
</g>
</svg>
